# xmcd
#
# Track frame offsets: 
#        150
#        14424
#        24717
#        42471
#        61173
#        75953
#        97845
#        120835
#        140406
#        162378
#        184698
#
# Disc length: 2695 seconds
#
# Revision: 0
# Processed by: cddbd v1.5.1PL0 Copyright (c) Steve Scherf et al.
# Submitted via: ExactAudioCopy v0.95a5
#
DISCID=7e0a850b
DTITLE=Bluesgarden - Secrets of Love
DYEAR=1998
DGENRE=Blues
TTITLE0=Long Grey Mare
TTITLE1=Sugaree
TTITLE2=Bosom of love
TTITLE3=Hard way
TTITLE4=Better day
TTITLE5=Night of the Blues
TTITLE6=Secrets of love
TTITLE7=Tell me why
TTITLE8=Little wing
TTITLE9=What you want
TTITLE10=Simple woman
EXTD=
EXTT0=
EXTT1=
EXTT2=
EXTT3=
EXTT4=
EXTT5=
EXTT6=
EXTT7=
EXTT8=
EXTT9=
EXTT10=
PLAYORDER=
